<svg xmlns="http://www.w3.org/2000/svg" xmlns:xlink="http://www.w3.org/1999/xlink" version="1.1" x="0px" y="0px" style="enable-background:new 0 0 560 560;" xml:space="preserve" viewBox="102.19 202.21 358.78 116.66">
<style type="text/css">
	.st0{fill:#39B54A;}
	<!-- * default: #333333 -->
	.st1{fill:#ffffff;}
	.st2{fill:#39B54A;stroke:#39B54A;stroke-miterlimit:10;}
</style>
<g id="Camada_3">
	<path class="st0" d="M387.68,265.21c3.56,0.12,6.96,0.86,10.09,2.13c-1.07-13.62-7.9-25.62-18.05-33.57   c-0.89,3.44-2.38,6.63-4.36,9.46C381.73,248.81,386.2,256.5,387.68,265.21z"/>
	<path class="st0" d="M360.15,307.92c-3.05,0.8-6.24,1.22-9.54,1.22c-3.34,0-6.58-0.44-9.66-1.26c-1.48,3-3.46,5.71-5.82,8.03   c4.83,1.66,10.02,2.58,15.41,2.58c5.4,0,10.58-0.92,15.41-2.58C363.6,313.6,361.63,310.9,360.15,307.92z"/>
	<path class="st0" d="M326.42,242.76c-1.94-2.9-3.37-6.16-4.18-9.67c-10.64,7.94-17.82,20.24-18.92,34.25   c3.18-1.29,6.63-2.03,10.24-2.13C315.07,256.25,319.76,248.37,326.42,242.76z"/>
</g>
<g id="Camada_1">
	<g>
		<path class="st1" d="M132.44,277.05c-9.62-2.76-16.62-6.16-21-10.19c-4.38-4.03-6.57-9-6.57-14.92c0-6.7,2.68-12.24,8.03-16.62    c5.35-4.38,12.31-6.57,20.88-6.57c5.84,0,11.05,1.13,15.62,3.39c4.57,2.26,8.12,5.37,10.63,9.34c2.51,3.97,3.77,8.31,3.77,13.02    h-11.27c0-5.16-1.64-9.21-4.91-12.16c-3.27-2.95-7.88-4.42-13.84-4.42c-5.53,0-9.84,1.22-12.94,3.66s-4.64,5.82-4.64,10.15    c0,3.47,1.47,6.41,4.41,8.81c2.94,2.4,7.94,4.59,15.01,6.58c7.07,1.99,12.6,4.18,16.59,6.58c3.99,2.39,6.95,5.19,8.88,8.38    c1.93,3.19,2.89,6.95,2.89,11.27c0,6.89-2.69,12.41-8.06,16.56c-5.37,4.15-12.56,6.22-21.55,6.22c-5.84,0-11.29-1.12-16.35-3.36    c-5.06-2.24-8.97-5.3-11.71-9.2c-2.75-3.89-4.12-8.31-4.12-13.26h11.27c0,5.14,1.9,9.2,5.69,12.18c3.8,2.98,8.87,4.47,15.21,4.47    c5.92,0,10.45-1.21,13.61-3.62c3.15-2.41,4.73-5.7,4.73-9.87c0-4.17-1.46-7.39-4.38-9.67    C145.41,281.52,140.11,279.27,132.44,277.05z"/>
		<path class="st1" d="M190.38,314.96h-11.21v-85.04h11.21V314.96z"/>
		<path class="st1" d="M225.36,229.92l27.8,69.38l27.8-69.38h14.54v85.04h-11.21v-33.12l1.05-35.74l-27.92,68.86h-8.59l-27.86-68.68    l1.11,35.57v33.12h-11.21v-85.04H225.36z"/>
		<path class="st1" d="M424.41,300.06l24.3-70.14h12.26l-31.54,85.04h-9.93l-31.48-85.04h12.21L424.41,300.06z"/>
	</g>
</g>
<g id="Camada_2">
	<path class="st2" d="M333.81,226.26c0-9.53,7.72-17.25,17.25-17.25c9.53,0,17.25,7.72,17.25,17.25c0,1.86-0.3,3.65-0.85,5.33   c1.95,0.9,3.81,1.94,5.59,3.1c1-2.62,1.56-5.46,1.56-8.43c0-13.01-10.54-23.55-23.55-23.55c-13.01,0-23.55,10.54-23.55,23.55   c0,2.27,0.33,4.46,0.92,6.53c1.87-1.01,3.82-1.88,5.84-2.62C333.98,228.91,333.81,227.61,333.81,226.26z"/>
	<path class="st2" d="M365.35,244.97c-2.14-1.32-4.44-2.39-6.88-3.16c-2.25,1.07-4.75,1.69-7.41,1.69c-3.17,0-6.14-0.87-8.69-2.37   c-2.51,0.56-4.9,1.43-7.13,2.56c4.18,3.8,9.73,6.11,15.82,6.11C356.43,249.81,361.38,248.01,365.35,244.97z"/>
	<path class="st2" d="M335.23,243.7c2.24-1.13,4.63-2,7.13-2.56c-4.03-2.36-7.01-6.29-8.09-10.97c-2.02,0.73-3.97,1.61-5.84,2.62   C329.65,237.04,332.04,240.81,335.23,243.7z"/>
	<path class="st2" d="M358.46,241.82c2.44,0.77,4.75,1.84,6.88,3.16c3.44-2.63,6.12-6.18,7.7-10.28c-1.78-1.16-3.65-2.2-5.59-3.1   C365.98,236.11,362.7,239.8,358.46,241.82z"/>
	<path class="st2" d="M314.34,312.06c-9.53,0-17.25-7.72-17.25-17.25c0-7.09,4.28-13.17,10.39-15.82c-0.38-2.12-0.6-4.28-0.66-6.49   c-9.32,3.14-16.03,11.94-16.03,22.32c0,13.01,10.54,23.55,23.55,23.55c6.87,0,13.06-2.95,17.36-7.64   c-1.98-0.94-3.88-2.03-5.68-3.25C322.95,310.31,318.85,312.06,314.34,312.06z"/>
	<path class="st2" d="M319.61,271.86c0.05,2.36,0.35,4.66,0.9,6.86c6.47,2.49,11.07,8.74,11.07,16.09c0,0.28-0.03,0.56-0.04,0.83   c1.82,1.42,3.8,2.63,5.92,3.62c0.28-1.44,0.43-2.93,0.43-4.45C337.89,283.62,330.08,274.26,319.61,271.86z"/>
	<path class="st2" d="M331.54,295.65c-0.22,4.67-2.3,8.85-5.52,11.83c1.8,1.22,3.7,2.3,5.68,3.25c2.89-3.15,4.93-7.09,5.76-11.46   C335.35,298.28,333.36,297.06,331.54,295.65z"/>
	<path class="st2" d="M314.34,277.57c2.18,0,4.25,0.42,6.17,1.16c-0.55-2.2-0.85-4.5-0.9-6.86c-1.7-0.39-3.46-0.6-5.28-0.6   c-2.63,0-5.16,0.44-7.52,1.23c0.06,2.21,0.29,4.38,0.66,6.49C309.58,278.08,311.9,277.57,314.34,277.57z"/>
	<path class="st2" d="M394.14,272.5c-0.06,2.21-0.29,4.38-0.66,6.49c6.11,2.65,10.39,8.74,10.39,15.82   c0,9.53-7.72,17.25-17.25,17.25c-4.51,0-8.61-1.75-11.68-4.59c-1.8,1.22-3.7,2.3-5.68,3.25c4.31,4.7,10.49,7.64,17.36,7.64   c13.01,0,23.55-10.54,23.55-23.55C410.16,284.44,403.45,275.64,394.14,272.5z"/>
	<path class="st2" d="M380.44,278.72c0.55-2.2,0.85-4.5,0.9-6.86c-10.46,2.4-18.27,11.76-18.27,22.95c0,1.52,0.15,3.01,0.43,4.45   c2.11-0.98,4.1-2.2,5.92-3.62c-0.01-0.28-0.04-0.55-0.04-0.83C369.37,287.47,373.97,281.21,380.44,278.72z"/>
	<path class="st2" d="M381.34,271.86c-0.05,2.36-0.35,4.66-0.9,6.86c1.92-0.74,3.99-1.16,6.17-1.16c2.44,0,4.75,0.51,6.86,1.42   c0.38-2.12,0.6-4.28,0.66-6.49c-2.36-0.8-4.89-1.23-7.52-1.23C384.8,271.26,383.03,271.48,381.34,271.86z"/>
	<path class="st2" d="M369.41,295.65c-1.82,1.42-3.8,2.63-5.92,3.62c0.84,4.37,2.87,8.31,5.76,11.46c1.98-0.94,3.88-2.03,5.68-3.25   C371.71,304.5,369.63,300.32,369.41,295.65z"/>
</g>
</svg>